HIERARCHY
ROOT Hips
{
	OFFSET 0.00000 0.00000 0.00000
	CHANNELS 6 Xposition Yposition Zposition Zrotation Yrotation Xrotation 
	JOINT LHipJoint
	{
		OFFSET 0 0 0
		CHANNELS 3 Zrotation Yrotation Xrotation
		JOINT LeftHip
		{
			OFFSET 1.60223 -1.58443 0.78595
			CHANNELS 3 Zrotation Yrotation Xrotation
			JOINT LeftKnee
			{
				OFFSET 2.21690 -6.09089 0.00000
				CHANNELS 3 Zrotation Yrotation Xrotation
				JOINT LeftAnkle
				{
					OFFSET 2.34805 -6.45122 0.00000
					CHANNELS 3 Zrotation Yrotation Xrotation
					JOINT LeftToe
					{
						OFFSET 0.35452 -0.97402 1.38549
						CHANNELS 3 Zrotation Yrotation Xrotation
						End Site
						{
							OFFSET 0.00000 -0.00000 0.82816
						}
					}
				}
			}
		}
	}
	JOINT RHipJoint
	{
		OFFSET 0 0 0
		CHANNELS 3 Zrotation Yrotation Xrotation
		JOINT RightHip
		{
			OFFSET -1.56524 -1.58443 0.78595
			CHANNELS 3 Zrotation Yrotation Xrotation
			JOINT RightKnee
			{
				OFFSET -2.15558 -5.92241 0.00000
				CHANNELS 3 Zrotation Yrotation Xrotation
				JOINT RightAnkle
				{
					OFFSET -2.35077 -6.45870 0.00000
					CHANNELS 3 Zrotation Yrotation Xrotation
					JOINT RightToe
					{
						OFFSET -0.26910 -0.73935 1.33295
						CHANNELS 3 Zrotation Yrotation Xrotation
						End Site
						{
							OFFSET -0.00000 -0.00000 0.75962
						}
					}
				}
			}
		}
	}
	JOINT lowerback
	{
		OFFSET 0 0 0
		CHANNELS 3 Zrotation Yrotation Xrotation
		JOINT Chest
		{
			OFFSET -0.05489 1.97104 -0.02993
			CHANNELS 3 Zrotation Yrotation Xrotation
			JOINT Chest2
			{
				OFFSET -0.00702 1.94230 0.13626
				CHANNELS 3 Zrotation Yrotation Xrotation
				JOINT lowerneck
				{
					OFFSET 0 0 0
					CHANNELS 3 Zrotation Yrotation Xrotation
					JOINT Neck
					{
						OFFSET -0.07858 1.62869 -0.02510
						CHANNELS 3 Zrotation Yrotation Xrotation
						JOINT Head
						{
							OFFSET 0.13978 1.59213 -0.29859
							CHANNELS 3 Zrotation Yrotation Xrotation
							End Site
							{
								OFFSET 0.05353 1.64420 -0.10000
							}
						}
					}
				}
				JOINT LeftCollar
				{
					OFFSET 0 0 0
					CHANNELS 3 Zrotation Yrotation Xrotation
					JOINT LeftShoulder
					{
						OFFSET 3.48263 1.15278 0.52941
CHANNELS 3 Zrotation Xrotation Yrotation
						JOINT LeftElbow
						{
OFFSET 0 -4.592070 -0.000000
CHANNELS 3 Zrotation Xrotation Yrotation
							JOINT LeftWrist
							{
OFFSET 0 -2.981090 -0.000000
CHANNELS 3 Zrotation Xrotation Yrotation
								JOINT lhand
								{
									OFFSET 0 0 0
CHANNELS 3 Zrotation Xrotation Yrotation
									JOINT LFingers
									{
OFFSET 0 -0.480200 -0.000000
CHANNELS 3 Zrotation Xrotation Yrotation
										End Site
										{
OFFSET 0 -0.387150 -0.000000
										}
									}
								}
								JOINT LThumb
								{
OFFSET 0 0.000000 0.000000
CHANNELS 3 Zrotation Xrotation Yrotation
									End Site
									{
OFFSET 0 -0.393060 0.393060
									}
								}
							}
						}
					}
				}
				JOINT RightCollar
				{
					OFFSET 0 0 0
					CHANNELS 3 Zrotation Yrotation Xrotation
					JOINT RightShoulder
					{
						OFFSET -3.52496 1.12722 0.24548
CHANNELS 3 Zrotation Xrotation Yrotation
						JOINT RightElbow
						{
OFFSET 0 -4.765080 -0.000000
CHANNELS 3 Zrotation Xrotation Yrotation
							JOINT RightWrist
							{
OFFSET 0 -2.789020 -0.000000
CHANNELS 3 Zrotation Xrotation Yrotation
								JOINT rhand
								{
									OFFSET 0 0 0
CHANNELS 3 Zrotation Xrotation Yrotation
									JOINT RFingers
									{
OFFSET 0 -0.721300 -0.000000
CHANNELS 3 Zrotation Xrotation Yrotation
										End Site
										{
OFFSET 0 -0.581530 -0.000000
										}
									}
								}
								JOINT RThumb
								{
OFFSET 0 0.000000 0.000000
CHANNELS 3 Zrotation Xrotation Yrotation
									End Site
									{
OFFSET 0 -0.590410 0.590410
									}
								}
							}
						}
					}
				}
			}
		}
	}
}
MOTION
Frames: 5
Frame Time: 0.008333333333333333
20.426400 15.955700 -0.932500 26.510800 -73.776300 -20.972100 0.000000 0.000000 0.000000 -27.832500 -10.700800 -9.468700 2.338000 9.537300 27.490800 0.307100 -20.457600 -16.775400 0.889200 6.010800 16.815700 0.000000 0.000000 0.000000 11.543100 -0.681100 -9.791800 -2.234800 -9.338900 26.861300 -2.255700 -9.975600 -33.341000 -1.535700 7.823500 -22.179100 -13.445400 6.916800 -3.979200 1.432800 9.504000 -3.810400 8.793500 5.228900 -4.301600 1.828300 17.787800 -1.103700 -2.407400 24.114900 10.791400 0.005300 11.877000 4.353700 0.000000 -0.000000 0.000000 -14.392400 6.003700 -0.614100 20.153400 -30.826700 5.609800 28.129400 31.503400 -37.289100 0.000000 0.000000 0.000000 -7.125000 0.000000 0.000000 -9.351200 70.589600 5.728400 0.000000 -0.000000 0.000000 4.433600 11.782400 -20.392800 -21.811200 -32.763000 -6.483400 8.727700 -3.933200 -37.652200 0.000000 0.000000 0.000000 7.125000 0.000000 -0.000000 22.234900 -5.602700 26.272300
20.406287 15.985470 -0.921826 13.134601 -74.279217 -6.762491 0.000000 0.000000 0.000000 -23.354541 -11.643673 -12.479595 2.878701 10.495296 30.596816 0.332449 -21.745479 -17.741112 0.844071 5.860163 16.379166 0.000000 0.000000 0.000000 15.903562 -0.532163 -9.181266 -1.699666 -8.208816 23.350966 -1.865309 -11.601576 -32.180010 -1.468886 7.658928 -21.682732 -7.125749 6.622669 -4.534644 0.334441 8.929181 -4.751497 4.311325 4.683953 -3.581920 2.970155 18.108522 -1.359697 -0.798954 24.304506 10.459741 0.346574 12.085252 4.196176 0.000000 0.000000 0.000000 -11.079030 5.901990 -0.884903 20.105164 -30.768897 5.585045 25.751691 26.788658 -30.099022 0.000000 0.000000 0.000000 -7.125000 0.000000 0.000000 -6.742498 62.620049 2.913992 0.000000 0.000000 0.000000 8.013653 11.641640 -21.209710 -20.917623 -31.731958 -6.006577 13.743800 0.665034 -37.703072 0.000000 0.000000 0.000000 7.125000 0.000000 0.000000 24.632724 -5.619732 29.692128
20.388782 15.989145 -0.905872 7.018377 -74.336174 -0.476705 0.000000 0.000000 0.000000 -21.416876 -11.830394 -13.672916 3.146486 10.928457 32.039141 0.353256 -22.354067 -18.253801 0.803302 5.720131 15.974522 0.000000 0.000000 0.000000 17.810449 -0.499293 -8.455854 -1.434367 -7.572418 21.422655 -1.664571 -12.378064 -31.549143 -1.461517 7.640492 -21.627427 -3.291750 6.400903 -4.249728 -0.756558 8.482971 -5.333073 1.103335 4.303178 -3.515119 3.580055 18.391166 -1.415949 0.667130 24.495657 10.275766 0.688285 12.265544 4.006585 0.000000 0.000000 0.000000 -8.539451 6.205315 -0.945650 20.022064 -30.668886 5.542580 24.806550 23.867644 -25.223599 0.000000 0.000000 0.000000 -7.125000 0.000000 0.000000 -5.391191 57.325663 1.630996 0.000000 0.000000 0.000000 10.716326 11.914327 -21.448725 -20.453131 -31.184371 -5.764135 9.047627 -0.934049 -37.477983 0.000000 0.000000 0.000000 7.125000 0.000000 0.000000 22.394265 -5.431386 26.431547
20.374875 15.985841 -0.884006 6.861474 -74.516779 -0.313338 0.000000 0.000000 0.000000 -21.439052 -11.730335 -13.622783 3.152987 10.938740 32.073548 0.382742 -22.323951 -18.434907 0.814575 5.759067 16.086992 0.000000 0.000000 0.000000 17.807787 -0.312583 -8.345379 -1.436226 -7.577103 21.436710 -1.675043 -12.393355 -31.626041 -1.477138 7.679368 -21.744480 -3.201595 6.339052 -4.423602 -0.719293 8.402785 -5.354831 1.113415 4.259561 -3.429291 3.297067 18.258436 -1.870685 1.352429 24.256923 10.862336 0.986162 12.160391 4.158776 0.000000 0.000000 0.000000 -8.378801 6.578515 -1.393632 19.934439 -30.563226 5.497980 24.303290 24.108496 -25.903029 0.000000 0.000000 0.000000 -7.125000 0.000000 0.000000 -6.223848 57.923019 1.973488 0.000000 0.000000 0.000000 10.928931 12.215293 -21.355677 -20.287072 -30.986631 -5.678374 9.210413 -0.483005 -37.542927 0.000000 0.000000 0.000000 7.125000 0.000000 0.000000 22.471904 -5.488714 26.559744
20.367278 15.979004 -0.862651 7.490617 -74.883864 -0.967601 0.000000 0.000000 0.000000 -21.665590 -11.436158 -13.442129 3.116631 10.881590 31.881532 0.384476 -22.248130 -18.401374 0.895122 6.030024 16.871504 0.000000 0.000000 0.000000 17.553067 -0.148655 -8.426922 -1.478689 -7.683323 21.756172 -1.703811 -12.159414 -31.619970 -1.468778 7.658711 -21.682130 -3.349647 6.286384 -4.445880 -0.704731 8.331197 -5.437357 1.203235 4.229717 -3.524491 2.630560 17.738472 -2.411592 2.595535 23.452250 11.470970 1.464341 11.791700 4.205253 0.000000 0.000000 0.000000 -8.286236 7.173567 -1.830095 19.969499 -30.605557 5.515797 24.529508 24.270275 -26.951482 0.000000 0.000000 0.000000 -7.125000 0.000000 0.000000 -6.442712 59.065017 2.220090 0.000000 0.000000 0.000000 10.928969 12.428166 -20.994011 -20.254705 -30.948028 -5.661797 9.304857 -0.313691 -37.532392 0.000000 0.000000 0.000000 7.125000 0.000000 0.000000 22.517931 -5.476782 26.619423
